<svg width="29" height="29" viewBox="0 0 29 29" fill="none" xmlns="http://www.w3.org/2000/svg">
<g clip-path="url(#clip0_1376_1870)">
<path d="M22.8667 17.9228C22.2744 17.3059 21.5598 16.9762 20.8026 16.9762C20.0514 16.9762 19.3307 17.2998 18.7139 17.9167L16.7841 19.8404C16.6253 19.7549 16.4665 19.6755 16.3139 19.5961C16.094 19.4862 15.8864 19.3823 15.7093 19.2724C13.9016 18.1243 12.2588 16.6281 10.6832 14.6921C9.91977 13.7272 9.40678 12.915 9.03425 12.0905C9.53503 11.6325 9.99917 11.1561 10.4511 10.6981C10.6221 10.5271 10.7931 10.35 10.9641 10.179C12.2466 8.89652 12.2466 7.23541 10.9641 5.95292L9.29685 4.2857C9.10753 4.09638 8.91211 3.90095 8.7289 3.70553C8.36247 3.32689 7.97773 2.93604 7.58077 2.56961C6.98839 1.98333 6.27997 1.67188 5.53491 1.67188C4.78984 1.67188 4.06921 1.98333 3.45851 2.56961C3.4524 2.57572 3.4524 2.57572 3.44629 2.58183L1.36989 4.67655C0.588189 5.45825 0.142374 6.41095 0.0446609 7.51633C-0.101909 9.29959 0.423298 10.9607 0.826364 12.0478C1.81571 14.7166 3.29362 17.1899 5.49826 19.8404C8.17315 23.0344 11.3916 25.5566 15.068 27.3337C16.4726 27.9994 18.3475 28.7872 20.4422 28.9216C20.5705 28.9277 20.7048 28.9338 20.827 28.9338C22.2377 28.9338 23.4225 28.4269 24.3508 27.4192C24.3569 27.407 24.3691 27.4009 24.3752 27.3887C24.6927 27.004 25.0592 26.6559 25.4439 26.2833C25.7065 26.0329 25.9752 25.7703 26.2378 25.4955C26.8424 24.8665 27.16 24.1336 27.16 23.3825C27.16 22.6252 26.8363 21.8985 26.2195 21.2877L22.8667 17.9228ZM25.0531 24.3535C25.047 24.3535 25.047 24.3596 25.0531 24.3535C24.8149 24.61 24.5706 24.8421 24.308 25.0986C23.911 25.4772 23.508 25.8741 23.1293 26.32C22.5125 26.9795 21.7858 27.291 20.8331 27.291C20.7415 27.291 20.6438 27.291 20.5522 27.2849C18.7384 27.1688 17.0528 26.4604 15.7887 25.8558C12.3321 24.1825 9.29685 21.8068 6.77464 18.7961C4.69213 16.2861 3.29972 13.9654 2.37756 11.4737C1.8096 9.95305 1.60196 8.76828 1.69357 7.65069C1.75464 6.93616 2.02945 6.34378 2.53634 5.83689L4.61885 3.75438C4.91809 3.47346 5.23566 3.32078 5.54712 3.32078C5.93187 3.32078 6.24332 3.55285 6.43875 3.74828C6.44486 3.75438 6.45096 3.76049 6.45707 3.7666C6.8296 4.1147 7.18381 4.47502 7.55634 4.85976C7.74566 5.05519 7.94109 5.25061 8.13651 5.45214L9.80374 7.11937C10.4511 7.76672 10.4511 8.36521 9.80374 9.01256C9.62663 9.18966 9.45564 9.36677 9.27853 9.53777C8.76554 10.063 8.27698 10.5515 7.74566 11.0279C7.73345 11.0401 7.72123 11.0462 7.71513 11.0584C7.18992 11.5836 7.28763 12.0966 7.39756 12.4447C7.40367 12.463 7.40977 12.4814 7.41588 12.4997C7.84948 13.5501 8.46019 14.5394 9.38846 15.7181L9.39457 15.7242C11.0801 17.8006 12.8573 19.419 14.8176 20.6587C15.068 20.8175 15.3245 20.9458 15.5688 21.0679C15.7887 21.1778 15.9963 21.2816 16.1734 21.3916C16.1978 21.4038 16.2223 21.4221 16.2467 21.4343C16.4543 21.5381 16.6498 21.587 16.8513 21.587C17.3582 21.587 17.6757 21.2694 17.7796 21.1656L19.8682 19.077C20.0758 18.8694 20.4056 18.619 20.7903 18.619C21.169 18.619 21.4804 18.8571 21.6698 19.0648C21.6759 19.0709 21.6759 19.0709 21.682 19.077L25.047 22.442C25.676 23.0649 25.676 23.7061 25.0531 24.3535Z" fill="url(#paint0_linear_1376_1870)"/>
<path d="M15.6357 6.88161C17.2357 7.15032 18.6892 7.90759 19.8495 9.06794C21.0099 10.2283 21.761 11.6818 22.0359 13.2818C22.103 13.6849 22.4511 13.9658 22.8481 13.9658C22.897 13.9658 22.9397 13.9597 22.9886 13.9536C23.4405 13.8803 23.7397 13.4528 23.6664 13.0009C23.3367 11.0649 22.4206 9.3 21.0221 7.90149C19.6236 6.50297 17.8586 5.58691 15.9227 5.25713C15.4708 5.18385 15.0494 5.48309 14.97 5.92891C14.8906 6.37472 15.1837 6.80832 15.6357 6.88161Z" fill="url(#paint1_linear_1376_1870)"/>
<path d="M28.8967 12.7641C28.3531 9.57622 26.8508 6.67537 24.5423 4.3669C22.2339 2.05843 19.333 0.556097 16.1451 0.0125692C15.6993 -0.0668225 15.2779 0.23853 15.1985 0.684346C15.1252 1.13627 15.4245 1.55765 15.8764 1.63705C18.7223 2.1195 21.3178 3.46916 23.382 5.52724C25.4462 7.59143 26.7897 10.1869 27.2722 13.0328C27.3394 13.4359 27.6875 13.7168 28.0844 13.7168C28.1333 13.7168 28.176 13.7107 28.2249 13.7046C28.6707 13.6374 28.9761 13.2099 28.8967 12.7641Z" fill="url(#paint2_linear_1376_1870)"/>
</g>
<defs>
<linearGradient id="paint0_linear_1376_1870" x1="13.5898" y1="28.9338" x2="13.5898" y2="1.67187" gradientUnits="userSpaceOnUse">
<stop stop-color="#000E38"/>
<stop offset="1" stop-color="#3F186A"/>
</linearGradient>
<linearGradient id="paint1_linear_1376_1870" x1="19.3173" y1="13.9658" x2="19.3173" y2="5.24609" gradientUnits="userSpaceOnUse">
<stop stop-color="#000E38"/>
<stop offset="1" stop-color="#3F186A"/>
</linearGradient>
<linearGradient id="paint2_linear_1376_1870" x1="22.0484" y1="13.7168" x2="22.0484" y2="0" gradientUnits="userSpaceOnUse">
<stop stop-color="#000E38"/>
<stop offset="1" stop-color="#3F186A"/>
</linearGradient>
<clipPath id="clip0_1376_1870">
<rect width="28.9356" height="28.9356" fill="white"/>
</clipPath>
</defs>
</svg>
