<svg width="30" height="30" viewBox="0 0 30 30" fill="none" xmlns="http://www.w3.org/2000/svg">
<g clip-path="url(#clip0_1376_1887)">
<path d="M16.8315 29.6557H12.073C11.2782 29.6557 10.6316 29.0091 10.6316 28.2143V17.4813H7.85543C7.06062 17.4813 6.41406 16.8346 6.41406 16.04V11.4409C6.41406 10.646 7.06062 9.99949 7.85543 9.99949H10.6316V7.69643C10.6316 5.41286 11.3487 3.47002 12.705 2.0783C14.0675 0.680228 15.9716 -0.0585938 18.2114 -0.0585938L21.8405 -0.0526995C22.6339 -0.0513393 23.2793 0.595215 23.2793 1.38867V5.65883C23.2793 6.45365 22.633 7.1002 21.8384 7.1002L19.395 7.10111C18.6499 7.10111 18.4601 7.25051 18.4195 7.2963C18.3526 7.37224 18.2731 7.58693 18.2731 8.17976V9.99927H21.6548C21.9094 9.99927 22.156 10.0621 22.368 10.1804C22.8252 10.4359 23.1095 10.919 23.1095 11.4411L23.1077 16.0402C23.1077 16.8346 22.4612 17.4811 21.6663 17.4811H18.2731V28.2143C18.2731 29.0091 17.6263 29.6557 16.8315 29.6557ZM12.3736 27.9137H16.5309V16.7015C16.5309 16.1708 16.9627 15.7391 17.4932 15.7391H21.3657L21.3673 11.7415H17.493C16.9625 11.7415 16.5309 11.3098 16.5309 10.7791V8.17976C16.5309 7.4992 16.6 6.72524 17.1137 6.14352C17.7344 5.44029 18.7126 5.35913 19.3946 5.35913L21.5374 5.35822V1.68883L18.21 1.68338C14.6105 1.68338 12.3736 3.98758 12.3736 7.69643V10.7791C12.3736 11.3096 11.942 11.7415 11.4115 11.7415H8.15604V15.7391H11.4115C11.942 15.7391 12.3736 16.1708 12.3736 16.7015V27.9137Z" fill="url(#paint0_linear_1376_1887)"/>
</g>
<defs>
<linearGradient id="paint0_linear_1376_1887" x1="14.8467" y1="29.6557" x2="14.8467" y2="-0.0585938" gradientUnits="userSpaceOnUse">
<stop stop-color="#000E38"/>
<stop offset="1" stop-color="#3F186A"/>
</linearGradient>
<clipPath id="clip0_1376_1887">
<rect width="29.6563" height="29.7143" fill="white"/>
</clipPath>
</defs>
</svg>
