<svg width="30" height="30" viewBox="0 0 30 30" fill="none" xmlns="http://www.w3.org/2000/svg">
<g clip-path="url(#clip0_1376_1891)">
<path d="M23.8054 3.94141H5.9089C2.65064 3.94141 0 6.60053 0 9.8685V19.8446C0 23.1132 2.65064 25.7717 5.9089 25.7717H23.8054C27.0636 25.7717 29.7143 23.1126 29.7143 19.8446V9.8685C29.7143 6.60053 27.0636 3.94141 23.8054 3.94141ZM28.5015 19.8452C28.5015 22.4449 26.3948 24.5595 23.8054 24.5595H5.9089C3.31951 24.5595 1.21283 22.4443 1.21283 19.8452V9.8685C1.21283 7.26941 3.31951 5.15423 5.9089 5.15423H23.8054C26.3948 5.15423 28.5015 7.26941 28.5015 9.8685V19.8452Z" fill="url(#paint0_linear_1376_1891)"/>
<path d="M20.2286 14.6368L11.8267 9.71575C11.6399 9.6066 11.4077 9.60478 11.2191 9.71272C11.0305 9.82066 10.9141 10.0214 10.9141 10.2391V20.0806C10.9141 20.2977 11.0305 20.499 11.2185 20.6069C11.3119 20.6603 11.4162 20.687 11.5205 20.687C11.6266 20.687 11.7321 20.6591 11.8267 20.6039L20.2286 15.6841C20.4141 15.5755 20.5288 15.376 20.5288 15.1607C20.5288 14.9455 20.4148 14.7453 20.2286 14.6368ZM12.1269 19.0224V11.2967L18.7222 15.1601L12.1269 19.0224Z" fill="url(#paint1_linear_1376_1891)"/>
</g>
<defs>
<linearGradient id="paint0_linear_1376_1891" x1="14.8571" y1="25.7717" x2="14.8571" y2="3.94141" gradientUnits="userSpaceOnUse">
<stop stop-color="#000E38"/>
<stop offset="1" stop-color="#3F186A"/>
</linearGradient>
<linearGradient id="paint1_linear_1376_1891" x1="15.7214" y1="20.687" x2="15.7214" y2="9.63281" gradientUnits="userSpaceOnUse">
<stop stop-color="#000E38"/>
<stop offset="1" stop-color="#3F186A"/>
</linearGradient>
<clipPath id="clip0_1376_1891">
<rect width="29.7143" height="29.7143" fill="white"/>
</clipPath>
</defs>
</svg>
